<svg width="256" height="170" viewBox="0 0 256 170" fill="none" xmlns="http://www.w3.org/2000/svg">
<path d="M90.3236 27.8794C90.3236 30.0947 88.5206 31.8894 86.2981 31.8894C84.0752 31.8894 82.2729 30.0947 82.2729 27.8794C82.2729 25.6652 84.0752 23.8699 86.2981 23.8699C88.5206 23.8699 90.3236 25.6652 90.3236 27.8794Z" fill="#1371A6"/>
<path d="M138.198 44.0597C138.198 46.2742 136.395 48.0688 134.173 48.0688C131.949 48.0688 130.148 46.2742 130.148 44.0597C130.148 41.8455 131.949 40.049 134.173 40.049C136.395 40.049 138.198 41.8455 138.198 44.0597Z" fill="#3E8DB7"/>
<path d="M165.768 40.4402C165.768 42.6552 163.967 44.4499 161.743 44.4499C159.52 44.4499 157.719 42.6552 157.719 40.4402C157.719 38.2257 159.52 36.4301 161.743 36.4301C163.967 36.4301 165.768 38.2257 165.768 40.4402Z" fill="#1371A6"/>
<path d="M208.336 20.8543C208.336 23.7945 205.944 26.1768 202.992 26.1768C200.041 26.1768 197.65 23.7945 197.65 20.8543C197.65 17.9151 200.041 15.5324 202.992 15.5324C205.944 15.5324 208.336 17.9151 208.336 20.8543Z" fill="#3E8DB7"/>
<path d="M169.83 22.1315C169.83 24.3466 168.027 26.1412 165.805 26.1412C163.581 26.1412 161.778 24.3466 161.778 22.1315C161.778 19.917 163.581 18.1215 165.805 18.1215C168.027 18.1215 169.83 19.917 169.83 22.1315Z" fill="#3E8DB7"/>
<path d="M174.139 48.7424C174.139 50.5074 172.704 51.9359 170.934 51.9359C169.163 51.9359 167.728 50.5074 167.728 48.7424C167.728 46.9792 169.163 45.5489 170.934 45.5489C172.704 45.5489 174.139 46.9792 174.139 48.7424Z" fill="#3E8DB7"/>
<path d="M187.391 46.6141C187.391 48.3782 185.955 49.8076 184.185 49.8076C182.414 49.8076 180.978 48.3782 180.978 46.6141C180.978 44.8506 182.414 43.4206 184.185 43.4206C185.955 43.4206 187.391 44.8506 187.391 46.6141Z" fill="#1371A6"/>
<path d="M177.667 24.0475C177.667 25.5168 176.47 26.7087 174.995 26.7087C173.52 26.7087 172.324 25.5168 172.324 24.0475C172.324 22.5785 173.52 21.3862 174.995 21.3862C176.47 21.3862 177.667 22.5785 177.667 24.0475Z" fill="#1371A6"/>
<path d="M228.212 18.7247C228.212 20.4891 226.776 21.9182 225.006 21.9182C223.236 21.9182 221.801 20.4891 221.801 18.7247C221.801 16.9621 223.236 15.5324 225.006 15.5324C226.776 15.5324 228.212 16.9621 228.212 18.7247Z" fill="#1371A6"/>
<path d="M199.573 79.3985C199.573 81.1628 198.137 82.592 196.366 82.592C194.596 82.592 193.161 81.1628 193.161 79.3985C193.161 77.6359 194.596 76.2049 196.366 76.2049C198.137 76.2049 199.573 77.6359 199.573 79.3985Z" fill="#1371A6"/>
<path d="M143.328 29.5826C143.328 31.7974 141.525 33.5923 139.302 33.5923C137.079 33.5923 135.277 31.7974 135.277 29.5826C135.277 27.3681 137.079 25.5726 139.302 25.5726C141.525 25.5726 143.328 27.3681 143.328 29.5826Z" fill="#1371A6"/>
<path d="M155.546 25.1118C155.546 27.4642 153.631 29.3701 151.272 29.3701C148.91 29.3701 146.997 27.4642 146.997 25.1118C146.997 22.7609 148.91 20.8544 151.272 20.8544C153.631 20.8544 155.546 22.7609 155.546 25.1118Z" fill="#1371A6"/>
<path d="M186.963 17.2352C186.963 19.587 185.049 21.4926 182.689 21.4926C180.328 21.4926 178.415 19.587 178.415 17.2352C178.415 14.8831 180.328 12.9766 182.689 12.9766C185.049 12.9766 186.963 14.8831 186.963 17.2352Z" fill="#1371A6"/>
<path d="M198.504 42.3557C198.504 44.7081 196.59 46.614 194.23 46.614C191.869 46.614 189.956 44.7081 189.956 42.3557C189.956 40.0045 191.869 38.098 194.23 38.098C196.59 38.098 198.504 40.0045 198.504 42.3557Z" fill="#1371A6"/>
<path d="M194.23 24.2603C194.23 26.0256 192.793 27.4538 191.024 27.4538C189.255 27.4538 187.818 26.0256 187.818 24.2603C187.818 22.4971 189.255 21.0668 191.024 21.0668C192.793 21.0668 194.23 22.4971 194.23 24.2603Z" fill="#1371A6"/>
<path d="M213.892 22.983C213.892 24.1591 212.936 25.1118 211.755 25.1118C210.575 25.1118 209.618 24.1591 209.618 22.983C209.618 21.8076 210.575 20.8543 211.755 20.8543C212.936 20.8543 213.892 21.8076 213.892 22.983Z" fill="#1371A6"/>
<path d="M218.808 86.2112C218.808 87.9752 217.372 89.4047 215.602 89.4047C213.832 89.4047 212.397 87.9752 212.397 86.2112C212.397 84.448 213.832 83.0177 215.602 83.0177C217.372 83.0177 218.808 84.448 218.808 86.2112Z" fill="#1371A6"/>
<path d="M170.934 32.3502C170.934 34.1143 169.498 35.5437 167.728 35.5437C165.957 35.5437 164.522 34.1143 164.522 32.3502C164.522 30.587 165.957 29.1567 167.728 29.1567C169.498 29.1567 170.934 30.587 170.934 32.3502Z" fill="#1371A6"/>
<path d="M136.916 64.0711C136.916 66.2853 135.113 68.0803 132.891 68.0803C130.667 68.0803 128.865 66.2853 128.865 64.0711C128.865 61.8566 130.667 60.0605 132.891 60.0605C135.113 60.0605 136.916 61.8566 136.916 64.0711Z" fill="#1371A6"/>
<path d="M139.908 80.25C139.908 82.4657 138.106 84.2597 135.882 84.2597C133.659 84.2597 131.857 82.4657 131.857 80.25C131.857 78.0361 133.659 76.2405 135.882 76.2405C138.106 76.2405 139.908 78.0361 139.908 80.25Z" fill="#3E8DB7"/>
<path d="M91.2142 64.7091C91.2142 66.4738 89.7779 67.9026 88.0081 67.9026C86.2377 67.9026 84.8024 66.4738 84.8024 64.7091C84.8024 62.9459 86.2377 61.5156 88.0081 61.5156C89.7779 61.5156 91.2142 62.9459 91.2142 64.7091Z" fill="#3E8DB7"/>
<path d="M150.202 63.2194C150.202 64.9829 148.767 66.412 146.997 66.412C145.226 66.412 143.79 64.9829 143.79 63.2194C143.79 61.4556 145.226 60.0259 146.997 60.0259C148.767 60.0259 150.202 61.4556 150.202 63.2194Z" fill="#1371A6"/>
<path d="M207.053 32.9881C207.053 34.7531 205.618 36.1816 203.848 36.1816C202.077 36.1816 200.641 34.7531 200.641 32.9881C200.641 31.2255 202.077 29.7958 203.848 29.7958C205.618 29.7958 207.053 31.2255 207.053 32.9881Z" fill="#3E8DB7"/>
<path d="M139.089 53.4268C139.089 55.1903 137.653 56.6191 135.882 56.6191C134.112 56.6191 132.676 55.1903 132.676 53.4268C132.676 51.6627 134.112 50.2333 135.882 50.2333C137.653 50.2333 139.089 51.6627 139.089 53.4268Z" fill="#1371A6"/>
<path d="M144.859 21.2804C144.859 23.0442 143.424 24.473 141.654 24.473C139.883 24.473 138.447 23.0442 138.447 21.2804C138.447 19.5163 139.883 18.0869 141.654 18.0869C143.424 18.0869 144.859 19.5163 144.859 21.2804Z" fill="#1371A6"/>
<path d="M143.149 73.2249C143.149 74.9893 141.714 76.4185 139.943 76.4185C138.173 76.4185 136.738 74.9893 136.738 73.2249C136.738 71.4615 138.173 70.0314 139.943 70.0314C141.714 70.0314 143.149 71.4615 143.149 73.2249Z" fill="#1371A6"/>
<path d="M105.926 66.6254C105.926 68.8407 104.123 70.6354 101.9 70.6354C99.6767 70.6354 97.875 68.8407 97.875 66.6254C97.875 64.4112 99.6767 62.6153 101.9 62.6153C104.123 62.6153 105.926 64.4112 105.926 66.6254Z" fill="#3E8DB7"/>
<path d="M148.813 54.9163C148.813 56.9752 147.138 58.6415 145.073 58.6415C143.008 58.6415 141.332 56.9752 141.332 54.9163C141.332 52.8596 143.008 51.1909 145.073 51.1909C147.138 51.1909 148.813 52.8596 148.813 54.9163Z" fill="#1371A6"/>
<path d="M61.6846 16.5959C61.6846 18.8116 59.8823 20.606 57.6591 20.606C55.436 20.606 53.634 18.8116 53.634 16.5959C53.634 14.3814 55.436 12.5868 57.6591 12.5868C59.8823 12.5868 61.6846 14.3814 61.6846 16.5959Z" fill="#1371A6"/>
<path d="M50.9946 19.829C50.9946 21.5991 49.5523 23.0348 47.774 23.0348C45.9955 23.0348 44.5535 21.5991 44.5535 19.829C44.5535 18.0559 45.9955 16.6208 47.774 16.6208C49.5523 16.6208 50.9946 18.0559 50.9946 19.829Z" fill="#1371A6"/>
<path d="M72.5664 28.1325C72.5664 31.6574 69.696 34.516 66.1552 34.516C62.6129 34.516 59.7431 31.6574 59.7431 28.1325C59.7431 24.6032 62.6129 21.744 66.1552 21.744C69.696 21.744 72.5664 24.6032 72.5664 28.1325Z" fill="#3E8DB7"/>
<path d="M121.938 53.2535C121.938 56.1912 119.545 58.5742 116.595 58.5742C113.642 58.5742 111.25 56.1912 111.25 53.2535C111.25 50.3119 113.642 47.9292 116.595 47.9292C119.545 47.9292 121.938 50.3119 121.938 53.2535Z" fill="#1371A6"/>
<path d="M189.047 33.2417C189.047 36.7666 186.176 39.626 182.636 39.626C179.093 39.626 176.223 36.7666 176.223 33.2417C176.223 29.7132 179.093 26.8541 182.636 26.8541C186.176 26.8541 189.047 29.7132 189.047 33.2417Z" fill="#3E8DB7"/>
<path d="M214.48 76.4586C214.48 79.9834 211.61 82.8432 208.07 82.8432C204.526 82.8432 201.657 79.9834 201.657 76.4586C201.657 72.9301 204.526 70.0709 208.07 70.0709C211.61 70.0709 214.48 72.9301 214.48 76.4586Z" fill="#3E8DB7"/>
<path d="M96.5034 76.6717C96.5034 80.1963 93.633 83.0552 90.0925 83.0552C86.5504 83.0552 83.68 80.1963 83.68 76.6717C83.68 73.1421 86.5504 70.2832 90.0925 70.2832C93.633 70.2832 96.5034 73.1421 96.5034 76.6717Z" fill="#1371A6"/>
<path d="M64.1919 45.6278C64.1919 47.3988 62.7496 48.8339 60.9708 48.8339C59.1925 48.8339 57.7509 47.3988 57.7509 45.6278C57.7509 43.8547 59.1925 42.419 60.9708 42.419C62.7496 42.419 64.1919 43.8547 64.1919 45.6278Z" fill="#3E8DB7"/>
<path d="M61.627 37.9635C61.627 39.7345 60.1844 41.1702 58.4065 41.1702C56.6283 41.1702 55.1863 39.7345 55.1863 37.9635C55.1863 36.1916 56.6283 34.755 58.4065 34.755C60.1844 34.755 61.627 36.1916 61.627 37.9635Z" fill="#1371A6"/>
<path d="M57.2315 25.8288C57.2315 27.2978 56.0349 28.4889 54.5592 28.4889C53.0838 28.4889 51.8881 27.2978 51.8881 25.8288C51.8881 24.3583 53.0838 23.1664 54.5592 23.1664C56.0349 23.1664 57.2315 24.3583 57.2315 25.8288Z" fill="#1371A6"/>
<path d="M42.5765 23.02C42.5765 24.7909 41.1342 26.2261 39.3554 26.2261C37.5771 26.2261 36.1352 24.7909 36.1352 23.02C36.1352 21.2472 37.5771 19.8112 39.3554 19.8112C41.1342 19.8112 42.5765 21.2472 42.5765 23.02Z" fill="#3E8DB7"/>
<path d="M74.4764 50.0151C74.4764 52.074 72.8005 53.7406 70.7348 53.7406C68.6691 53.7406 66.9938 52.074 66.9938 50.0151C66.9938 47.9572 68.6691 46.29 70.7348 46.29C72.8005 46.29 74.4764 47.9572 74.4764 50.0151Z" fill="#80AB41"/>
<path d="M84.7348 60.2339C84.7348 61.1167 84.0162 61.8306 83.1312 61.8306C82.2452 61.8306 81.5281 61.1167 81.5281 60.2339C81.5281 59.3523 82.2452 58.638 83.1312 58.638C84.0162 58.638 84.7348 59.3523 84.7348 60.2339Z" fill="#1371A6"/>
<path d="M80.8447 63.6407C80.8447 64.9697 79.7624 66.0462 78.4288 66.0462C77.0952 66.0462 76.0142 64.9697 76.0142 63.6407C76.0142 62.3114 77.0952 61.2349 78.4288 61.2349C79.7624 61.2349 80.8447 62.3114 80.8447 63.6407Z" fill="#3E8DB7"/>
<path d="M77.0408 39.371C77.0408 40.8412 75.8436 42.0323 74.3682 42.0323C72.8925 42.0323 71.6968 40.8412 71.6968 39.371C71.6968 37.9005 72.8925 36.7101 74.3682 36.7101C75.8436 36.7101 77.0408 37.9005 77.0408 39.371Z" fill="#1371A6"/>
<path d="M85.3757 91.9548C85.3757 93.425 84.1793 94.6161 82.704 94.6161C81.2283 94.6161 80.0316 93.425 80.0316 91.9548C80.0316 90.4846 81.2283 89.2935 82.704 89.2935C84.1793 89.2935 85.3757 90.4846 85.3757 91.9548Z" fill="#1371A6"/>
<path d="M94.5663 58.3183C94.5663 59.7891 93.3691 60.9792 91.894 60.9792C90.418 60.9792 89.2214 59.7891 89.2214 58.3183C89.2214 56.8481 90.418 55.657 91.894 55.657C93.3691 55.657 94.5663 56.8481 94.5663 58.3183Z" fill="#1371A6"/>
<path d="M53.2738 31.9203C53.2738 33.249 52.1922 34.3252 50.8592 34.3252C49.525 34.3252 48.443 33.249 48.443 31.9203C48.443 30.5904 49.525 29.5148 50.8592 29.5148C52.1922 29.5148 53.2738 30.5904 53.2738 31.9203Z" fill="#1371A6"/>
<path d="M69.7305 41.0741C69.7305 42.4031 68.6492 43.4796 67.3156 43.4796C65.9814 43.4796 64.9003 42.4031 64.9003 41.0741C64.9003 39.7458 65.9814 38.669 67.3156 38.669C68.6492 38.669 69.7305 39.7458 69.7305 41.0741Z" fill="#1371A6"/>
<path d="M134.275 71.9434C134.275 73.2724 133.194 74.3486 131.86 74.3486C130.526 74.3486 129.445 73.2724 129.445 71.9434C129.445 70.615 130.526 69.5376 131.86 69.5376C133.194 69.5376 134.275 70.615 134.275 71.9434Z" fill="#1371A6"/>
<path d="M89.3936 86.6326C89.3936 87.9621 88.3119 89.038 86.9783 89.038C85.6441 89.038 84.5631 87.9621 84.5631 86.6326C84.5631 85.3036 85.6441 84.2274 86.9783 84.2274C88.3119 84.2274 89.3936 85.3036 89.3936 86.6326Z" fill="#3E8DB7"/>
<path d="M89.0095 16.8052C89.0095 18.2751 87.8122 19.4655 86.3374 19.4655C84.8612 19.4655 83.6651 18.2751 83.6651 16.8052C83.6651 15.3343 84.8612 14.1436 86.3374 14.1436C87.8122 14.1436 89.0095 15.3343 89.0095 16.8052Z" fill="#1371A6"/>
<path d="M159.539 47.4608C159.539 48.9313 158.343 50.1221 156.867 50.1221C155.391 50.1221 154.195 48.9313 154.195 47.4608C154.195 45.9915 155.391 44.8002 156.867 44.8002C158.343 44.8002 159.539 45.9915 159.539 47.4608Z" fill="#1371A6"/>
<path d="M197.369 32.9846C197.369 34.4542 196.171 35.6456 194.696 35.6456C193.221 35.6456 192.024 34.4542 192.024 32.9846C192.024 31.5141 193.221 30.3233 194.696 30.3233C196.171 30.3233 197.369 31.5141 197.369 32.9846Z" fill="#1371A6"/>
<path d="M121.496 35.9646C121.496 37.4354 120.299 38.6259 118.824 38.6259C117.348 38.6259 116.151 37.4354 116.151 35.9646C116.151 34.4947 117.348 33.3034 118.824 33.3034C120.299 33.3034 121.496 34.4947 121.496 35.9646Z" fill="#1371A6"/>
<path d="M79.1779 30.2166C79.1779 31.6875 77.9816 32.8779 76.5056 32.8779C75.0296 32.8779 73.8333 31.6875 73.8333 30.2166C73.8333 28.7467 75.0296 27.5554 76.5056 27.5554C77.9816 27.5554 79.1779 28.7467 79.1779 30.2166Z" fill="#1371A6"/>
<path d="M130.9 57.254C130.9 58.7245 129.703 59.9153 128.227 59.9153C126.752 59.9153 125.555 58.7245 125.555 57.254C125.555 55.7844 126.752 54.5928 128.227 54.5928C129.703 54.5928 130.9 55.7844 130.9 57.254Z" fill="#3E8DB7"/>
<path d="M79.1779 17.6564C79.1779 19.1266 77.9816 20.3177 76.5056 20.3177C75.0296 20.3177 73.8333 19.1266 73.8333 17.6564C73.8333 16.1859 75.0296 14.9949 76.5056 14.9949C77.9816 14.9949 79.1779 16.1859 79.1779 17.6564Z" fill="#1371A6"/>
<path d="M128.656 47.4608C128.656 49.2261 127.22 50.654 125.449 50.654C123.678 50.654 122.242 49.2261 122.242 47.4608C122.242 45.6964 123.678 44.2673 125.449 44.2673C127.22 44.2673 128.656 45.6964 128.656 47.4608Z" fill="#1371A6"/>
<path d="M86.551 54.9119C86.551 56.0883 85.5937 57.0412 84.4139 57.0412C83.2333 57.0412 82.2754 56.0883 82.2754 54.9119C82.2754 53.7362 83.2333 52.7832 84.4139 52.7832C85.5937 52.7832 86.551 53.7362 86.551 54.9119Z" fill="#3E8DB7"/>
<path d="M155.798 56.6156C155.798 57.792 154.841 58.744 153.66 58.744C152.48 58.744 151.523 57.792 151.523 56.6156C151.523 55.4393 152.48 54.486 153.66 54.486C154.841 54.486 155.798 55.4393 155.798 56.6156Z" fill="#3E8DB7"/>
<path d="M189.567 63.6407C189.567 64.817 188.61 65.7694 187.429 65.7694C186.248 65.7694 185.291 64.817 185.291 63.6407C185.291 62.4643 186.248 61.512 187.429 61.512C188.61 61.512 189.567 62.4643 189.567 63.6407Z" fill="#1371A6"/>
<path d="M144.257 47.4608C144.257 48.6369 143.3 49.5898 142.12 49.5898C140.939 49.5898 139.982 48.6369 139.982 47.4608C139.982 46.2844 140.939 45.3324 142.12 45.3324C143.3 45.3324 144.257 46.2844 144.257 47.4608Z" fill="#1371A6"/>
<path d="M135.281 20.2106C135.281 21.387 134.323 22.3397 133.143 22.3397C131.963 22.3397 131.006 21.387 131.006 20.2106C131.006 19.0343 131.963 18.0822 133.143 18.0822C134.323 18.0822 135.281 19.0343 135.281 20.2106Z" fill="#3E8DB7"/>
<path d="M150.883 45.3325C150.883 46.5085 149.925 47.4609 148.745 47.4609C147.564 47.4609 146.607 46.5085 146.607 45.3325C146.607 44.1558 147.564 43.2032 148.745 43.2032C149.925 43.2032 150.883 44.1558 150.883 45.3325Z" fill="#1371A6"/>
<path d="M160.927 29.3655C160.927 30.5418 159.971 31.4939 158.789 31.4939C157.61 31.4939 156.653 30.5418 156.653 29.3655C156.653 28.1894 157.61 27.2359 158.789 27.2359C159.971 27.2359 160.927 28.1894 160.927 29.3655Z" fill="#1371A6"/>
<path d="M174.606 40.4353C174.606 41.6117 173.649 42.5646 172.468 42.5646C171.288 42.5646 170.331 41.6117 170.331 40.4353C170.331 39.2593 171.288 38.3069 172.468 38.3069C173.649 38.3069 174.606 39.2593 174.606 40.4353Z" fill="#1371A6"/>
<path d="M151.097 35.539C151.097 36.7154 150.14 37.6683 148.959 37.6683C147.778 37.6683 146.821 36.7154 146.821 35.539C146.821 34.363 147.778 33.4103 148.959 33.4103C150.14 33.4103 151.097 34.363 151.097 35.539Z" fill="#3E8DB7"/>
<path d="M144.257 38.307C144.257 39.4833 143.3 40.4354 142.12 40.4354C140.939 40.4354 139.982 39.4833 139.982 38.307C139.982 37.1306 140.939 36.1774 142.12 36.1774C143.3 36.1774 144.257 37.1306 144.257 38.307Z" fill="#1371A6"/>
<path d="M133.57 32.3458C133.57 33.5219 132.613 34.4745 131.433 34.4745C130.253 34.4745 129.295 33.5219 129.295 32.3458C129.295 31.1695 130.253 30.2165 131.433 30.2165C132.613 30.2165 133.57 31.1695 133.57 32.3458Z" fill="#1371A6"/>
<path d="M96.8103 67.6855C96.8103 68.8618 95.8524 69.8148 94.6726 69.8148C93.4923 69.8148 92.5344 68.8618 92.5344 67.6855C92.5344 66.5094 93.4923 65.5561 94.6726 65.5561C95.8524 65.5561 96.8103 66.5094 96.8103 67.6855Z" fill="#1371A6"/>
<path d="M236.16 19.9984C236.16 21.1747 235.203 22.1271 234.022 22.1271C232.842 22.1271 231.884 21.1747 231.884 19.9984C231.884 18.822 232.842 17.8697 234.022 17.8697C235.203 17.8697 236.16 18.822 236.16 19.9984Z" fill="#1371A6"/>
<path d="M197.369 61.2988C197.369 62.7693 196.171 63.96 194.696 63.96C193.221 63.96 192.024 62.7693 192.024 61.2988C192.024 59.8292 193.221 58.6378 194.696 58.6378C196.171 58.6378 197.369 59.8292 197.369 61.2988Z" fill="#1371A6"/>
<path d="M213.504 65.7694C213.504 66.9455 212.547 67.8984 211.367 67.8984C210.187 67.8984 209.229 66.9455 209.229 65.7694C209.229 64.5931 210.187 63.6407 211.367 63.6407C212.547 63.6407 213.504 64.5931 213.504 65.7694Z" fill="#1371A6"/>
<path d="M213.077 36.6034C213.077 37.7798 212.119 38.7328 210.94 38.7328C209.759 38.7328 208.802 37.7798 208.802 36.6034C208.802 35.428 209.759 34.4744 210.94 34.4744C212.119 34.4744 213.077 35.428 213.077 36.6034Z" fill="#1371A6"/>
<path d="M220.344 19.3595C220.344 20.5356 219.386 21.4879 218.206 21.4879C217.026 21.4879 216.069 20.5356 216.069 19.3595C216.069 18.1832 217.026 17.2308 218.206 17.2308C219.386 17.2308 220.344 18.1832 220.344 19.3595Z" fill="#1371A6"/>
<path d="M190.849 52.7832C190.849 53.9592 189.892 54.9119 188.712 54.9119C187.531 54.9119 186.574 53.9592 186.574 52.7832C186.574 51.6068 187.531 50.6538 188.712 50.6538C189.892 50.6538 190.849 51.6068 190.849 52.7832Z" fill="#3E8DB7"/>
<path d="M213.184 29.3655C213.184 30.8354 211.988 32.0262 210.512 32.0262C209.036 32.0262 207.839 30.8354 207.839 29.3655C207.839 27.895 209.036 26.7043 210.512 26.7043C211.988 26.7043 213.184 27.895 213.184 29.3655Z" fill="#1371A6"/>
<path d="M195.124 17.0176C195.124 18.194 194.166 19.1469 192.987 19.1469C191.806 19.1469 190.849 18.194 190.849 17.0176C190.849 15.8422 191.806 14.8889 192.987 14.8889C194.166 14.8889 195.124 15.8422 195.124 17.0176Z" fill="#1371A6"/>
<path d="M228.786 25.1076C228.786 25.9889 228.068 26.7043 227.182 26.7043C226.297 26.7043 225.579 25.9889 225.579 25.1076C225.579 24.2251 226.297 23.5108 227.182 23.5108C228.068 23.5108 228.786 24.2251 228.786 25.1076Z" fill="#3E8DB7"/>
<path d="M220.022 79.394C220.022 80.2768 219.306 80.9908 218.42 80.9908C217.534 80.9908 216.817 80.2768 216.817 79.394C216.817 78.5128 217.534 77.7973 218.42 77.7973C219.306 77.7973 220.022 78.5128 220.022 79.394Z" fill="#1371A6"/>
<path d="M102.154 73.6462C102.154 74.8223 101.196 75.7755 100.016 75.7755C98.8349 75.7755 97.8779 74.8223 97.8779 73.6462C97.8779 72.4701 98.8349 71.5175 100.016 71.5175C101.196 71.5175 102.154 72.4701 102.154 73.6462Z" fill="#1371A6"/>
<path d="M82.9181 68.537C82.9181 69.7134 81.9602 70.6663 80.7804 70.6663C79.5995 70.6663 78.6425 69.7134 78.6425 68.537C78.6425 67.3613 79.5995 66.4083 80.7804 66.4083C81.9602 66.4083 82.9181 67.3613 82.9181 68.537Z" fill="#1371A6"/>
<path d="M75.1382 55.7818C75.1382 56.667 74.4172 57.386 73.5276 57.386C72.6387 57.386 71.9174 56.667 71.9174 55.7818C71.9174 54.8954 72.6387 54.1767 73.5276 54.1767C74.4172 54.1767 75.1382 54.8954 75.1382 55.7818Z" fill="#1371A6"/>
<path d="M95.0149 31.0861C95.0149 31.9715 94.2936 32.6903 93.4044 32.6903C92.5148 32.6903 91.7944 31.9715 91.7944 31.0861C91.7944 30.2 92.5148 29.4818 93.4044 29.4818C94.2936 29.4818 95.0149 30.2 95.0149 31.0861Z" fill="#1371A6"/>
<path d="M80.6955 23.8481C80.6955 24.7336 79.9742 25.4523 79.0849 25.4523C78.1956 25.4523 77.4747 24.7336 77.4747 23.8481C77.4747 22.9614 78.1956 22.2438 79.0849 22.2438C79.9742 22.2438 80.6955 22.9614 80.6955 23.8481Z" fill="#1371A6"/>
<path d="M83.9017 34.0668C83.9017 34.9523 83.1801 35.6716 82.2902 35.6716C81.4012 35.6716 80.6808 34.9523 80.6808 34.0668C80.6808 33.1801 81.4012 32.4625 82.2902 32.4625C83.1801 32.4625 83.9017 33.1801 83.9017 34.0668Z" fill="#3E8DB7"/>
<path d="M141.608 60.8906C141.608 61.776 140.886 62.4948 139.997 62.4948C139.107 62.4948 138.387 61.776 138.387 60.8906C138.387 60.0045 139.107 59.2863 139.997 59.2863C140.886 59.2863 141.608 60.0045 141.608 60.8906Z" fill="#3E8DB7"/>
<path d="M120.235 42.7955C120.235 43.6801 119.514 44.3998 118.624 44.3998C117.735 44.3998 117.014 43.6801 117.014 42.7955C117.014 41.9089 117.735 41.1904 118.624 41.1904C119.514 41.1904 120.235 41.9089 120.235 42.7955Z" fill="#1371A6"/>
<path d="M128.242 40.0275C128.242 41.2021 127.285 42.1568 126.105 42.1568C124.924 42.1568 123.967 41.2021 123.967 40.0275C123.967 38.8515 124.924 37.8988 126.105 37.8988C127.285 37.8988 128.242 38.8515 128.242 40.0275Z" fill="#1371A6"/>
<path d="M129.211 22.5709C129.211 23.4555 128.489 24.1749 127.6 24.1749C126.711 24.1749 125.99 23.4555 125.99 22.5709C125.99 21.6842 126.711 20.9667 127.6 20.9667C128.489 20.9667 129.211 21.6842 129.211 22.5709Z" fill="#1371A6"/>
<path d="M154.644 76.6448C154.644 77.53 153.924 78.2491 153.034 78.2491C152.145 78.2491 151.423 77.53 151.423 76.6448C151.423 75.7587 152.145 75.0403 153.034 75.0403C153.924 75.0403 154.644 75.7587 154.644 76.6448Z" fill="#1371A6"/>
<path d="M149.615 71.1097C149.615 72.2839 148.657 73.2384 147.477 73.2384C146.297 73.2384 145.34 72.2839 145.34 71.1097C145.34 69.9333 146.297 68.9804 147.477 68.9804C148.657 68.9804 149.615 69.9333 149.615 71.1097Z" fill="#1371A6"/>
<path d="M71.2917 15.1193C71.2917 16.0048 70.5701 16.7236 69.6811 16.7236C68.7919 16.7236 68.0706 16.0048 68.0706 15.1193C68.0706 14.2335 68.7919 13.5151 69.6811 13.5151C70.5701 13.5151 71.2917 14.2335 71.2917 15.1193Z" fill="#1371A6"/>
<path d="M48.6364 27.8924C48.6364 28.7785 47.9151 29.4967 47.0255 29.4967C46.1365 29.4967 45.4156 28.7785 45.4156 27.8924C45.4156 27.0066 46.1365 26.2882 47.0255 26.2882C47.9151 26.2882 48.6364 27.0066 48.6364 27.8924Z" fill="#1371A6"/>
<path d="M53.5503 37.7649C53.5064 38.6492 52.7499 39.3323 51.8615 39.2885C50.9737 39.2448 50.2892 38.4906 50.3331 37.6066C50.3777 36.7211 51.1333 36.0393 52.0213 36.083C52.9094 36.1274 53.5943 36.8804 53.5503 37.7649Z" fill="#1371A6"/>
<path d="M35.7867 19.2089C35.7867 20.0956 35.0654 20.8116 34.1764 20.8116C33.2871 20.8116 32.5661 20.0956 32.5661 19.2089C32.5661 18.3228 33.2871 17.6061 34.1764 17.6061C35.0654 17.6061 35.7867 18.3228 35.7867 19.2089Z" fill="#1371A6"/>
<path d="M66.1241 50.7591C66.1241 51.6455 65.4028 52.3634 64.5135 52.3634C63.6242 52.3634 62.9033 51.6455 62.9033 50.7591C62.9033 49.8727 63.6242 49.1567 64.5135 49.1567C65.4028 49.1567 66.1241 49.8727 66.1241 50.7591Z" fill="#1371A6"/>
<path d="M77.3338 56.9627C77.3338 57.4052 76.9737 57.7633 76.5285 57.7633C76.0839 57.7633 75.7232 57.4052 75.7232 56.9627C75.7232 56.5192 76.0839 56.1605 76.5285 56.1605C76.9737 56.1605 77.3338 56.5192 77.3338 56.9627Z" fill="#1371A6"/>
<path d="M58.0984 31.8412C58.0984 32.2841 57.7383 32.6428 57.2937 32.6428C56.8487 32.6428 56.4881 32.2841 56.4881 31.8412C56.4881 31.3977 56.8487 31.0391 57.2937 31.0391C57.7383 31.0391 58.0984 31.3977 58.0984 31.8412Z" fill="#1371A6"/>
<path d="M55.3199 42.2731C55.3199 42.7157 54.9599 43.0743 54.5146 43.0743C54.0703 43.0743 53.7094 42.7157 53.7094 42.2731C53.7094 41.8296 54.0703 41.4716 54.5146 41.4716C54.9599 41.4716 55.3199 41.8296 55.3199 42.2731Z" fill="#3E8DB7"/>
<path d="M80.2295 56.7468C80.2295 57.1894 79.8689 57.5475 79.4242 57.5475C78.9796 57.5475 78.6196 57.1894 78.6196 56.7468C78.6196 56.3033 78.9796 55.9435 79.4242 55.9435C79.8689 55.9435 80.2295 56.3033 80.2295 56.7468Z" fill="#1371A6"/>
<path d="M144.347 43.1226C144.347 43.5637 143.987 43.9232 143.541 43.9232C143.097 43.9232 142.737 43.5637 142.737 43.1226C142.737 42.6788 143.097 42.319 143.541 42.319C143.987 42.319 144.347 42.6788 144.347 43.1226Z" fill="#1371A6"/>
<path d="M131.096 36.7354C131.096 37.1771 130.735 37.536 130.291 37.536C129.846 37.536 129.486 37.1771 129.486 36.7354C129.486 36.2916 129.846 35.9324 130.291 35.9324C130.735 35.9324 131.096 36.2916 131.096 36.7354Z" fill="#1371A6"/>
<path d="M152.042 49.2961C152.042 49.7372 151.681 50.0967 151.236 50.0967C150.792 50.0967 150.431 49.7372 150.431 49.2961C150.431 48.8523 150.792 48.4928 151.236 48.4928C151.681 48.4928 152.042 48.8523 152.042 49.2961Z" fill="#1371A6"/>
<path d="M155.511 40.3554C155.511 41.0585 154.936 41.6304 154.227 41.6304C153.519 41.6304 152.946 41.0585 152.946 40.3554C152.946 39.6489 153.519 39.0762 154.227 39.0762C154.936 39.0762 155.511 39.6489 155.511 40.3554Z" fill="#1371A6"/>
<path d="M165.556 14.1701C165.556 14.8727 164.982 15.4451 164.274 15.4451C163.565 15.4451 162.992 14.8727 162.992 14.1701C162.992 13.4636 163.565 12.8903 164.274 12.8903C164.982 12.8903 165.556 13.4636 165.556 14.1701Z" fill="#1371A6"/>
<path d="M157.648 16.9372C157.648 17.6407 157.073 18.2131 156.365 18.2131C155.657 18.2131 155.084 17.6407 155.084 16.9372C155.084 16.2311 155.657 15.6583 156.365 15.6583C157.073 15.6583 157.648 16.2311 157.648 16.9372Z" fill="#3E8DB7"/>
<path d="M150.381 40.3554C150.381 41.0585 149.807 41.6304 149.098 41.6304C148.391 41.6304 147.817 41.0585 147.817 40.3554C147.817 39.6489 148.391 39.0762 149.098 39.0762C149.807 39.0762 150.381 39.6489 150.381 40.3554Z" fill="#1371A6"/>
<path d="M131.524 24.3879C131.524 24.829 131.163 25.1886 130.718 25.1886C130.274 25.1886 129.913 24.829 129.913 24.3879C129.913 23.9444 130.274 23.5846 130.718 23.5846C131.163 23.5846 131.524 23.9444 131.524 24.3879Z" fill="#1371A6"/>
<path d="M87.0686 96.1315C87.0686 96.5729 86.7079 96.9324 86.2633 96.9324C85.8181 96.9324 85.4586 96.5729 85.4586 96.1315C85.4586 95.6886 85.8181 95.329 86.2633 95.329C86.7079 95.329 87.0686 95.6886 87.0686 96.1315Z" fill="#1371A6"/>
<path d="M83.0079 86.5518C83.0079 86.9938 82.6473 87.3524 82.2024 87.3524C81.7571 87.3524 81.3974 86.9938 81.3974 86.5518C81.3974 86.1086 81.7571 85.7481 82.2024 85.7481C82.6473 85.7481 83.0079 86.1086 83.0079 86.5518Z" fill="#1371A6"/>
<path d="M84.553 82.5073C84.553 83.0932 84.0752 83.57 83.4846 83.57C82.8945 83.57 82.4168 83.0932 82.4168 82.5073C82.4168 81.919 82.8945 81.4413 83.4846 81.4413C84.0752 81.4413 84.553 81.919 84.553 82.5073Z" fill="#1371A6"/>
<path d="M66.5509 18.8524C66.5509 19.295 66.1909 19.6536 65.7457 19.6536C65.3004 19.6536 64.9407 19.295 64.9407 18.8524C64.9407 18.4095 65.3004 18.0493 65.7457 18.0493C66.1909 18.0493 66.5509 18.4095 66.5509 18.8524Z" fill="#1371A6"/>
<path d="M83.6489 20.556C83.6489 20.9976 83.2888 21.3572 82.8436 21.3572C82.3989 21.3572 82.0392 20.9976 82.0392 20.556C82.0392 20.1122 82.3989 19.7526 82.8436 19.7526C83.2888 19.7526 83.6489 20.1122 83.6489 20.556Z" fill="#1371A6"/>
<path d="M155.675 71.8618C155.675 72.3044 155.314 72.6633 154.869 72.6633C154.425 72.6633 154.064 72.3044 154.064 71.8618C154.064 71.4189 154.425 71.0594 154.869 71.0594C155.314 71.0594 155.675 71.4189 155.675 71.8618Z" fill="#1371A6"/>
<path d="M114.212 46.3157C114.212 46.757 113.851 47.1169 113.407 47.1169C112.962 47.1169 112.601 46.757 112.601 46.3157C112.601 45.8722 112.962 45.5117 113.407 45.5117C113.851 45.5117 114.212 45.8722 114.212 46.3157Z" fill="#1371A6"/>
<path d="M171.704 55.6833C171.704 56.1244 171.344 56.4839 170.899 56.4839C170.454 56.4839 170.094 56.1244 170.094 55.6833C170.094 55.2395 170.454 54.879 170.899 54.879C171.344 54.879 171.704 55.2395 171.704 55.6833Z" fill="#1371A6"/>
<path d="M178.117 44.186C178.117 44.6286 177.755 44.9882 177.311 44.9882C176.866 44.9882 176.505 44.6286 176.505 44.186C176.505 43.7431 176.866 43.383 177.311 43.383C177.755 43.383 178.117 43.7431 178.117 44.186Z" fill="#1371A6"/>
<path d="M223.64 26.9423C223.64 27.384 223.279 27.7438 222.834 27.7438C222.39 27.7438 222.029 27.384 222.029 26.9423C222.029 26.4988 222.39 26.1399 222.834 26.1399C223.279 26.1399 223.64 26.4988 223.64 26.9423Z" fill="#1371A6"/>
<path d="M217.656 23.9623C217.656 24.4037 217.295 24.7632 216.85 24.7632C216.405 24.7632 216.045 24.4037 216.045 23.9623C216.045 23.5185 216.405 23.159 216.85 23.159C217.295 23.159 217.656 23.5185 217.656 23.9623Z" fill="#1371A6"/>
<path d="M213.167 16.9372C213.167 17.3783 212.806 17.7379 212.361 17.7379C211.917 17.7379 211.557 17.3783 211.557 16.9372C211.557 16.4931 211.917 16.1333 212.361 16.1333C212.806 16.1333 213.167 16.4931 213.167 16.9372Z" fill="#1371A6"/>
<path d="M201.84 67.391C201.84 67.8336 201.479 68.1925 201.035 68.1925C200.59 68.1925 200.229 67.8336 200.229 67.391C200.229 66.9481 200.59 66.5885 201.035 66.5885C201.479 66.5885 201.84 66.9481 201.84 67.391Z" fill="#1371A6"/>
<path d="M206.115 40.3545C206.115 40.7962 205.754 41.1554 205.308 41.1554C204.863 41.1554 204.503 40.7962 204.503 40.3545C204.503 39.911 204.863 39.5511 205.308 39.5511C205.754 39.5511 206.115 39.911 206.115 40.3545Z" fill="#1371A6"/>
<path d="M199.915 52.4896C199.915 52.931 199.555 53.2905 199.11 53.2905C198.666 53.2905 198.305 52.931 198.305 52.4896C198.305 52.0458 198.666 51.6863 199.11 51.6863C199.555 51.6863 199.915 52.0458 199.915 52.4896Z" fill="#1371A6"/>
<path d="M183.459 59.3015C183.459 59.7438 183.099 60.1033 182.654 60.1033C182.21 60.1033 181.848 59.7438 181.848 59.3015C181.848 58.858 182.21 58.4985 182.654 58.4985C183.099 58.4985 183.459 58.858 183.459 59.3015Z" fill="#1371A6"/>
<path d="M193.718 67.6048C193.718 68.0459 193.357 68.4054 192.913 68.4054C192.468 68.4054 192.108 68.0459 192.108 67.6048C192.108 67.161 192.468 66.8014 192.913 66.8014C193.357 66.8014 193.718 67.161 193.718 67.6048Z" fill="#1371A6"/>
<path d="M120.197 26.0912C120.197 26.5329 119.836 26.8918 119.39 26.8918C118.946 26.8918 118.586 26.5329 118.586 26.0912C118.586 25.6474 118.946 25.2876 119.39 25.2876C119.836 25.2876 120.197 25.6474 120.197 26.0912Z" fill="#1371A6"/>
<path d="M76.596 44.186C76.596 44.6286 76.236 44.9882 75.7908 44.9882C75.3458 44.9882 74.9855 44.6286 74.9855 44.186C74.9855 43.7431 75.3458 43.383 75.7908 43.383C76.236 43.383 76.596 43.7431 76.596 44.186Z" fill="#1371A6"/>
<path d="M88.1371 57.3861C88.1371 57.8272 87.777 58.1867 87.3318 58.1867C86.8872 58.1867 86.5265 57.8272 86.5265 57.3861C86.5265 56.9423 86.8872 56.5828 87.3318 56.5828C87.777 56.5828 88.1371 56.9423 88.1371 57.3861Z" fill="#1371A6"/>
<path d="M143.706 78.6745C143.706 79.1156 143.345 79.4758 142.901 79.4758C142.456 79.4758 142.096 79.1156 142.096 78.6745C142.096 78.231 142.456 77.8715 142.901 77.8715C143.345 77.8715 143.706 78.231 143.706 78.6745Z" fill="#1371A6"/>
<path d="M127.513 30.3525C127.513 32.11 126.076 33.5409 124.305 33.5409C122.535 33.5409 121.101 32.11 121.101 30.3525C121.101 28.586 122.535 27.1545 124.305 27.1545C126.076 27.1545 127.513 28.586 127.513 30.3525Z" fill="#3E8DB7"/>
<path d="M111.804 27.37C111.804 28.2486 111.086 28.9641 110.2 28.9641C109.315 28.9641 108.599 28.2486 108.599 27.37C108.599 26.4863 109.315 25.7708 110.2 25.7708C111.086 25.7708 111.804 26.4863 111.804 27.37Z" fill="#1371A6"/>
<path d="M140.5 66.7531C140.5 67.1945 140.14 67.554 139.695 67.554C139.25 67.554 138.89 67.1945 138.89 66.7531C138.89 66.3096 139.25 65.9497 139.695 65.9497C140.14 65.9497 140.5 66.3096 140.5 66.7531Z" fill="#1371A6"/>
<path d="M84.5042 71.4362C84.5042 71.8788 84.1435 72.2374 83.6989 72.2374C83.254 72.2374 82.8942 71.8788 82.8942 71.4362C82.8942 70.9933 83.254 70.6332 83.6989 70.6332C84.1435 70.6332 84.5042 70.9933 84.5042 71.4362Z" fill="#1371A6"/>
<path d="M97.541 62.069C97.541 62.5113 97.1809 62.8703 96.7357 62.8703C96.2908 62.8703 95.9304 62.5113 95.9304 62.069C95.9304 61.6252 96.2908 61.266 96.7357 61.266C97.1809 61.266 97.541 61.6252 97.541 62.069Z" fill="#1371A6"/>
<path d="M31.1828 21.8892C31.1828 24.1043 29.3804 25.8983 27.1573 25.8983C24.9341 25.8983 23.1318 24.1043 23.1318 21.8892C23.1318 19.6753 24.9341 17.8792 27.1573 17.8792C29.3804 17.8792 31.1828 19.6753 31.1828 21.8892Z" fill="#1371A6"/>
<path d="M19.6016 127.85H24.7156C24.7156 127.85 25.3686 127.731 25.4725 126.405C25.5766 125.079 27.8738 96.1247 27.8738 96.1247H29.5169L36.4847 120.115C36.4847 120.115 36.8499 121.259 37.6064 121.259H44.548C44.548 121.259 45.3304 121.206 45.7221 119.57C46.1137 117.932 52.7667 96.1247 52.7667 96.1247H54.4895L56.5513 126.874C56.5513 126.874 56.707 127.85 57.4382 127.85H62.9972C62.9972 127.85 63.8317 127.886 63.6489 126.327C63.4659 124.768 60.7264 92.2769 60.7264 92.2769C60.7264 92.2769 60.8306 90.8354 59.3694 90.8354H49.1401C49.1401 90.8354 47.705 90.9767 47.3923 92.7453C47.0786 94.5126 41.364 114.163 41.364 114.163L35.1803 92.0175C35.1803 92.0175 35.0235 90.8354 33.6402 90.8354H23.0196C23.0196 90.8354 21.6625 90.7431 21.5069 92.2508C21.3494 93.7588 18.6979 126.405 18.6979 126.405C18.6979 126.405 18.6103 127.85 19.6016 127.85Z" fill="#80AB41"/>
<path d="M82.8104 123.032C82.8104 123.032 80.8621 123.794 78.5314 123.794C76.2005 123.794 72.5124 123.83 72.5124 119.531C72.5124 115.234 76.9305 115.719 82.8104 114.784V123.032ZM89.5606 123.586V107.886C89.5606 100.817 81.8365 100.643 78.7054 100.61C75.5737 100.573 69.4151 101.926 68.2678 102.238C67.1193 102.549 67.3981 103.07 67.3981 103.07C67.3981 103.07 67.7455 104.838 67.9204 105.948C68.0938 107.056 69.0677 106.674 69.0677 106.674C69.0677 106.674 72.8951 105.566 78.0091 105.287C83.1241 105.01 82.7761 108.269 82.7761 108.269V110.383C82.7761 110.383 77.4257 111.097 73.0347 111.943C67.9896 112.913 65.7632 115.132 65.7632 119.498C65.7632 123.863 66.9107 128.057 78.4646 128.057C90.0178 128.057 89.5606 123.586 89.5606 123.586Z" fill="#80AB41"/>
<path d="M98.5371 106.808C98.5371 106.808 101.225 106.079 105.27 106.079C105.27 106.079 106.366 106.182 106.366 105.481V102.128C106.366 102.128 106.548 101.025 104.879 101.025C103.209 101.025 96.9711 101.556 94.257 102.673C91.5437 103.792 91.7526 105.22 91.7526 105.22V127.133C91.7526 127.133 91.8306 127.85 92.9532 127.85H97.8589C97.8589 127.85 98.5371 127.758 98.5371 127.029V106.808Z" fill="#80AB41"/>
<path d="M115.186 112.551H116.855L124.632 102.206C124.632 102.206 124.771 101.702 125.623 101.702C126.476 101.702 131.607 101.808 131.607 101.808C131.607 101.808 132.443 101.825 131.834 102.587C131.225 103.351 122.423 114.423 122.423 114.423L132.269 126.883C132.269 126.883 133.052 127.85 132.129 127.85H125.136C125.136 127.85 124.771 127.73 124.58 127.42C124.388 127.107 116.925 116.97 116.925 116.97H115.186V127.226C115.186 127.226 115.063 127.85 114.316 127.85H109.253C109.253 127.85 108.499 127.746 108.499 127.097V92.1214C108.499 92.1214 108.314 91.5145 109.202 91.2365C110.088 90.9603 113.951 90.3183 113.951 90.3183C113.951 90.3183 115.186 89.9381 115.186 91.0647V112.551Z" fill="#80AB41"/>
<path d="M168.156 101.207H175.255C175.255 101.207 176.168 101.181 176.168 102.117V105.313C176.168 105.313 176.221 106.068 175.281 106.068H168.156V120.181C168.156 120.181 167.714 123.327 171.888 123.015C176.063 122.704 175.36 122.651 175.36 122.651C175.36 122.651 176.168 122.339 176.352 123.431C176.533 124.524 176.768 125.692 176.768 125.692C176.768 125.692 177.082 126.653 176.221 126.914C175.36 127.173 172.28 127.85 170.14 127.85C168 127.85 161.53 127.667 161.53 121.117V94.2417C161.53 94.2417 161.4 93.5139 162.521 93.2794C163.643 93.0455 167.191 92.396 167.191 92.396C167.191 92.396 168.183 92.2146 168.183 93.0455C168.183 93.877 168.156 101.207 168.156 101.207Z" fill="#80AB41"/>
<path d="M152.501 111.772V112.985H141.263V111.772C141.263 109.554 141.055 104.979 147.143 104.979C153.233 104.979 152.501 111.772 152.501 111.772ZM159.007 110.627C159.007 110.627 159.668 100.37 147.004 100.37C134.339 100.37 134.547 109.617 134.547 114.125C134.547 118.634 134.234 127.85 148.43 127.85C148.43 127.85 154.309 127.713 157.581 126.085C157.581 126.085 157.998 125.877 157.79 124.906C157.581 123.935 157.268 122.586 157.268 122.586C157.268 122.586 156.955 121.822 155.98 122.168C155.98 122.168 151.943 123.311 149.299 123.311C146.656 123.311 141.263 123.07 141.263 117.143H157.998C157.998 117.143 159.182 117.178 159.182 116.103C159.182 115.029 159.007 110.627 159.007 110.627Z" fill="#80AB41"/>
<path d="M185.692 127.226C185.692 127.57 185.412 127.85 185.067 127.85H179.537C179.19 127.85 178.912 127.57 178.912 127.226V102.656C178.912 102.312 179.19 102.032 179.537 102.032H185.067C185.412 102.032 185.692 102.312 185.692 102.656V127.226Z" fill="#80AB41"/>
<path d="M185.692 97.6984C185.692 98.0421 185.412 98.3218 185.067 98.3218H179.537C179.19 98.3218 178.912 98.0421 178.912 97.6984V91.0124C178.912 90.6676 179.19 90.3887 179.537 90.3887H185.067C185.412 90.3887 185.692 90.6676 185.692 91.0124V97.6984Z" fill="#80AB41"/>
<path d="M211.266 108.129V127.226C211.266 127.571 210.985 127.85 210.64 127.85H205.107C204.76 127.85 204.481 127.571 204.481 127.226V109.17C204.481 106.64 203.438 105.566 200.688 105.566C197.939 105.566 194.566 106.467 194.566 106.467V127.226C194.566 127.571 194.284 127.85 193.94 127.85H188.406C188.06 127.85 187.781 127.571 187.781 127.226V105.426C187.781 105.426 187.547 103.174 191.608 102.309C195.331 101.515 199.784 100.956 201.769 100.956C203.749 100.956 211.266 100.782 211.266 108.129Z" fill="#80AB41"/>
<path d="M230.506 111.737C230.506 114.148 228.542 116.104 226.122 116.104H224.486C222.066 116.104 220.102 114.148 220.102 111.737V109.832C220.102 107.42 222.066 105.464 224.486 105.464H226.122C228.542 105.464 230.506 107.42 230.506 109.832V111.737ZM225.843 129.134H228.696C228.696 129.134 231.968 128.926 231.968 131.908C231.968 134.887 228.904 135.58 225.843 135.58C222.782 135.58 219.267 135.267 219.267 132.356C219.267 129.447 221.081 129.134 225.843 129.134ZM240.422 104.874C240.422 104.874 239.795 103.073 239.587 102.206C239.379 101.339 238.924 101.376 238.404 101.584C237.22 102.206 234.507 102.83 233.672 102.83C232.836 102.83 231.758 102.587 230.888 102.414C230.02 102.241 227.304 101.584 224.938 101.584C218.12 101.584 213.526 104.459 213.526 110.802C213.526 117.143 218.92 118.427 218.92 118.427C218.92 118.427 213.701 118.183 213.701 122.723C213.701 127.263 218.084 127.194 218.084 127.194C218.084 127.194 218.284 127.265 218.278 127.563C218.271 127.861 218.049 128.061 218.049 128.061C218.049 128.061 212.797 127.645 212.797 133.051C212.797 138.456 218.329 139.496 225.496 139.496C232.664 139.496 238.404 137.52 238.404 130.798C238.404 124.075 230.925 124.249 230.925 124.249H222.851C221.981 124.249 219.998 124.11 219.998 122.064C219.998 120.02 222.539 119.915 222.539 119.915L227.096 119.778C235.794 119.778 236.768 114.233 236.768 111.598C236.768 108.965 234.784 106.815 234.784 106.815C234.784 106.815 235.342 107.059 236.838 107.059C238.333 107.059 239.517 106.401 240.212 106.019C240.907 105.637 240.422 104.874 240.422 104.874Z" fill="#80AB41"/>
<path d="M55.3805 132.122C55.3805 131.843 55.152 131.616 54.8714 131.616L52.7066 131.996C52.4252 131.996 52.197 132.223 52.197 132.503V153.982C52.197 154.26 52.4252 154.488 52.7066 154.488H54.8714C55.152 154.488 55.3805 154.26 55.3805 153.982V132.122Z" fill="#0B70A7"/>
<path d="M98.8014 141.001V153.982C98.8014 154.261 99.0299 154.488 99.3111 154.488H101.221C101.502 154.488 101.731 154.261 101.731 153.982V141.128C101.731 141.128 101.842 140.805 103.497 140.647C105.153 140.488 106.729 140.458 106.729 140.458C106.729 140.458 107.206 140.472 107.206 139.996V138.696C107.206 138.696 107.19 138.104 106.395 138.104C105.598 138.104 102.308 138.458 101.46 138.665C100.553 138.886 98.8014 139.473 98.8014 141.001Z" fill="#0B70A7"/>
<path d="M70.6604 141.889V153.982C70.6604 154.261 70.4334 154.488 70.1517 154.488H68.2416C67.9604 154.488 67.7325 154.261 67.7325 153.982V142.27C67.7325 141.877 67.8601 140.283 64.984 140.283C62.1079 140.283 59.8369 141.128 59.8369 141.128V153.982C59.8369 154.261 59.6099 154.488 59.3287 154.488H57.4183C57.1362 154.488 56.9087 154.261 56.9087 153.982V141.001C56.9087 141.001 56.8445 139.63 58.6917 139.077C60.5699 138.518 63.7106 138.074 65.3763 138.074C67.0422 138.074 70.6604 138.422 70.6604 141.889Z" fill="#0B70A7"/>
<path d="M122.613 141.889V153.982C122.613 154.261 122.386 154.488 122.104 154.488H120.194C119.913 154.488 119.685 154.261 119.685 153.982V142.27C119.685 141.877 119.812 140.283 116.937 140.283C114.06 140.283 111.789 141.128 111.789 141.128V153.982C111.789 154.261 111.563 154.488 111.281 154.488H109.37C109.09 154.488 108.861 154.261 108.861 153.982V141.001C108.861 141.001 108.797 139.63 110.644 139.077C112.523 138.518 115.664 138.074 117.329 138.074C118.995 138.074 122.613 138.422 122.613 141.889Z" fill="#0B70A7"/>
<path d="M80.8478 152.458C80.6783 151.76 80.2743 151.909 80.2743 151.909L77.7061 152.268C75.1386 152.628 75.2451 150.366 75.2451 150.366V140.323H80.2321C80.4435 140.323 80.6142 140.154 80.6142 139.944V138.496C80.6142 138.285 80.4435 138.115 80.2321 138.115H75.2451V133.2C75.2451 132.919 75.0176 132.692 74.7355 132.692L72.9527 133.074C72.6725 133.074 72.4437 133.3 72.4437 133.579V150.366C72.4437 154.636 76.2217 154.488 77.2404 154.488C78.2579 154.488 80.1469 154.085 80.7412 153.875C81.3363 153.663 81.0175 153.156 80.8478 152.458Z" fill="#0B70A7"/>
<path d="M148.08 152.458C147.913 151.76 147.508 151.909 147.508 151.909L144.94 152.268C142.372 152.628 142.478 150.366 142.478 150.366V140.323H147.465C147.676 140.323 147.848 140.154 147.848 139.944V138.496C147.848 138.285 147.676 138.115 147.465 138.115H142.478V133.2C142.478 132.919 142.249 132.692 141.968 132.692L140.185 133.074C139.904 133.074 139.677 133.3 139.677 133.579V150.366C139.677 154.636 143.454 154.488 144.473 154.488C145.492 154.488 147.38 154.085 147.973 153.875C148.568 153.663 148.249 153.156 148.08 152.458Z" fill="#0B70A7"/>
<path d="M94.154 145.631H85.5801L85.6918 144.146C85.8029 142.661 85.7505 139.923 89.931 139.923C93.6242 139.923 93.8779 142.334 94.048 144.066C94.163 145.242 94.154 145.631 94.154 145.631ZM97.0202 143.833C97.0202 143.833 96.9338 137.744 89.8886 137.744C82.8428 137.744 82.7158 142.946 82.7158 146.137C82.7158 149.331 82.651 154.488 90.8227 154.488C90.8227 154.488 94.1115 154.467 95.8943 153.622C95.8943 153.622 96.4253 153.558 96.2549 153.008C96.0861 152.459 95.9157 151.867 95.9157 151.867C95.9157 151.867 95.7037 151.422 95.1095 151.697C95.1095 151.697 93.029 152.353 91.1198 152.353C89.2091 152.353 85.6229 152.394 85.6229 147.766H96.5527C96.5527 147.766 97.146 147.766 97.146 147.279C97.146 146.794 97.0202 143.833 97.0202 143.833Z" fill="#0B70A7"/>
<path d="M135.178 151.908C135.178 151.908 133.353 152.458 131.675 152.458C129.999 152.458 127.134 152.394 127.134 149.436C127.134 146.475 128.874 147.026 135.178 145.863V151.908ZM137.938 141.191C137.809 137.872 134.18 137.703 131.95 137.703C129.724 137.703 126.603 138.337 125.712 138.57C124.821 138.802 125.097 139.204 125.097 139.204C125.097 139.204 125.288 140.07 125.372 140.409C125.457 140.748 125.436 140.96 126.179 140.769C126.921 140.578 129.341 139.985 132.376 139.944C135.412 139.901 135.241 142.122 135.241 142.122V143.707C135.029 143.876 130.191 144.615 127.707 145.018C125.224 145.419 124.269 147.152 124.269 149.393C124.269 151.634 124.842 154.488 131.525 154.488C138.207 154.488 137.938 152.035 137.938 152.035C137.938 152.035 138.064 144.51 137.938 141.191Z" fill="#0B70A7"/>
<path d="M184.498 141.889V153.982C184.498 154.261 184.269 154.488 183.99 154.488H182.079C181.797 154.488 181.57 154.261 181.57 153.982V142.27C181.57 141.877 181.697 140.283 178.821 140.283C175.946 140.283 173.675 141.128 173.675 141.128V153.982C173.675 154.261 173.447 154.488 173.166 154.488H171.255C170.974 154.488 170.745 154.261 170.745 153.982V141.001C170.745 141.001 170.682 139.63 172.528 139.077C174.407 138.518 177.547 138.074 179.215 138.074C180.88 138.074 184.498 138.422 184.498 141.889Z" fill="#0B70A7"/>
<path d="M197.061 151.908C197.061 151.908 195.237 152.458 193.561 152.458C191.883 152.458 189.019 152.394 189.019 149.436C189.019 146.475 190.759 147.026 197.061 145.863V151.908ZM199.821 141.191C199.693 137.872 196.065 137.703 193.837 137.703C191.607 137.703 188.488 138.337 187.596 138.57C186.706 138.802 186.981 139.204 186.981 139.204C186.981 139.204 187.172 140.07 187.257 140.409C187.342 140.748 187.321 140.96 188.064 140.769C188.807 140.578 191.227 139.985 194.26 139.944C197.296 139.901 197.125 142.122 197.125 142.122V143.707C196.912 143.876 192.074 144.615 189.591 145.018C187.108 145.419 186.154 147.152 186.154 149.393C186.154 151.634 186.727 154.488 193.409 154.488C200.093 154.488 199.821 152.035 199.821 152.035C199.821 152.035 199.947 144.51 199.821 141.191Z" fill="#0B70A7"/>
<path d="M152.641 138.95C152.641 138.741 152.47 138.57 152.259 138.57H150.094C149.883 138.57 149.712 138.741 149.712 138.95V154.108C149.712 154.318 149.883 154.488 150.094 154.488H152.259C152.47 154.488 152.641 154.318 152.641 154.108V138.95Z" fill="#0B70A7"/>
<path d="M152.641 131.847C152.641 131.637 152.47 131.467 152.259 131.467H150.094C149.883 131.467 149.712 131.637 149.712 131.847V135.589C149.712 135.799 149.883 135.969 150.094 135.969H152.259C152.47 135.969 152.641 135.799 152.641 135.589V131.847Z" fill="#0B70A7"/>
<path d="M166.005 148.82C166.005 150.858 164.533 152.51 162.301 152.51H161.004C158.611 152.51 157.3 150.858 157.3 148.82V143.673C157.3 141.313 158.958 139.983 161.004 139.983H162.301C164.533 139.983 166.005 141.634 166.005 143.673V148.82ZM162.701 137.872H160.728C157.284 137.872 154.491 140.113 154.491 144.088V148.273C154.491 151.705 156.698 154.488 160.728 154.488H162.701C166.46 154.488 168.939 151.705 168.939 148.273V144.088C168.939 140.654 166.46 137.872 162.701 137.872Z" fill="#0B70A7"/>
<path d="M201.533 151.179V132.239C201.533 131.958 201.761 131.731 202.043 131.731L203.953 131.35C204.233 131.35 204.462 131.578 204.462 131.858V151.179C204.462 151.179 204.617 152.442 205.907 152.333C207.196 152.221 207.212 152.126 207.307 152.634C207.402 153.14 207.466 153.505 207.466 153.505C207.466 153.505 207.736 154.028 207.084 154.17C206.43 154.313 205.747 154.488 205.238 154.488C204.73 154.488 201.533 154.583 201.533 151.179Z" fill="#0B70A7"/>
</svg>
